if (_typeface_js && _typeface_js.loadFace) _typeface_js.loadFace({"glyphs":{"S":{"x_min":0,"x_max":886,"ha":1001,"o":"m 886 0 l 0 0 l 0 247 l 640 247 l 640 436 l 0 436 l 0 1111 l 886 1111 l 886 862 l 249 862 l 249 680 l 886 680 l 886 0 "},"/":{"x_min":0,"x_max":715.328125,"ha":818,"o":"m 715 1055 l 162 0 l 0 58 l 552 1113 l 715 1055 "},"y":{"x_min":0,"x_max":888,"ha":1020,"o":"m 888 1110 l 888 -1 l 1 -1 l 1 248 l 639 248 l 639 408 l 0 408 l 0 1110 l 250 1110 l 250 658 l 639 658 l 639 1110 l 888 1110 "},"Á":{"x_min":-28.15625,"x_max":857,"ha":999,"o":"m 196 861 l 23 861 l 23 1110 l 857 1110 l 857 -1 l 608 -1 l 608 187 l 277 187 l 227 -1 l -28 -1 l 196 861 m 608 436 l 608 861 l 452 861 l 341 436 l 608 436 m 490 1415 l 709 1415 l 590 1164 l 370 1164 l 490 1415 "},"g":{"x_min":0,"x_max":928,"ha":1057,"o":"m 928 0 l 0 0 l 0 1110 l 928 1110 l 928 861 l 249 861 l 249 247 l 679 247 l 679 460 l 419 460 l 419 709 l 928 709 l 928 0 "},"е":{"x_min":0,"x_max":931,"ha":1010,"o":"m 0 0 l 0 1110 l 931 1110 l 815 418 l 249 418 l 249 247 l 871 247 l 871 0 l 0 0 m 249 667 l 596 667 l 628 861 l 249 861 l 249 667 "},"–":{"x_min":5.5625,"x_max":863.953125,"ha":1157,"o":"m 5 514 l 863 514 l 863 333 l 5 333 l 5 514 "},"ë":{"x_min":0,"x_max":931,"ha":963,"o":"m 0 0 l 0 1110 l 931 1110 l 815 418 l 249 418 l 249 247 l 871 247 l 871 0 l 0 0 m 249 667 l 596 667 l 628 861 l 249 861 l 249 667 m 179 1336 l 382 1336 l 382 1171 l 179 1171 l 179 1336 m 522 1336 l 725 1336 l 725 1171 l 522 1171 l 522 1336 "},"б":{"x_min":0,"x_max":873,"ha":1008,"o":"m 873 691 l 873 0 l 872 0 l 872 -1 l 0 -1 l 0 1110 l 872 1110 l 872 861 l 249 861 l 249 691 l 873 691 m 249 248 l 624 248 l 624 442 l 249 442 l 249 248 "},"e":{"x_min":0,"x_max":931,"ha":1010,"o":"m 0 0 l 0 1110 l 931 1110 l 815 418 l 249 418 l 249 247 l 871 247 l 871 0 l 0 0 m 249 667 l 596 667 l 628 861 l 249 861 l 249 667 "},"у":{"x_min":0,"x_max":888,"ha":1020,"o":"m 888 1110 l 888 -1 l 1 -1 l 1 248 l 639 248 l 639 408 l 0 408 l 0 1110 l 250 1110 l 250 658 l 639 658 l 639 1110 l 888 1110 "},"J":{"x_min":5.140625,"x_max":601,"ha":786,"o":"m 601 0 l 5 0 l 5 249 l 351 249 l 351 1111 l 601 1111 l 601 0 "},"Ј":{"x_min":5.140625,"x_max":601,"ha":786,"o":"m 601 0 l 5 0 l 5 249 l 351 249 l 351 1111 l 601 1111 l 601 0 "},"©":{"x_min":14.703125,"x_max":1107.984375,"ha":1208,"o":"m 1005 131 l 867 263 q 589 179 741 179 q 359 248 466 179 l 168 -110 l 14 0 l 307 359 q 530 293 420 293 q 757 369 648 293 l 596 525 l 518 432 l 370 530 l 543 728 l 750 715 l 655 593 l 839 447 q 887 572 881 505 q 832 807 887 712 q 503 970 738 967 q 330 917 416 971 q 588 1035 460 1035 q 916 907 785 1035 q 1047 584 1047 780 q 1040 506 1047 544 q 1024 437 1034 469 q 999 381 1013 405 q 967 345 984 358 l 1107 234 l 1005 131 "},"Ѓ":{"x_min":0,"x_max":804.609375,"ha":854,"o":"m 0 1111 l 804 1111 l 804 862 l 249 862 l 249 0 l 0 0 l 0 1111 m 377 1380 l 597 1380 l 477 1129 l 258 1129 l 377 1380 "},"ò":{"x_min":0,"x_max":946,"ha":1071,"o":"m 0 0 l 0 1111 l 946 1111 l 946 0 l 0 0 m 697 249 l 697 862 l 249 862 l 249 249 l 697 249 m 366 1353 l 575 1233 l 530 1158 l 315 1259 l 366 1353 "},"^":{"x_min":-13.890625,"x_max":581.984375,"ha":568,"o":"m 283 966 l 105 558 l -13 558 l 230 1111 l 337 1111 l 581 558 l 462 558 l 283 966 "},"D":{"x_min":-0.171875,"x_max":967.96875,"ha":1085,"o":"m 967 1110 l 967 861 l 741 -1 l 104 -1 l 104 861 l 0 861 l 0 1110 l 967 1110 m 709 861 l 353 861 l 353 248 l 550 248 l 709 861 "},"к":{"x_min":0,"x_max":888,"ha":1010,"o":"m 765 560 l 888 560 l 888 0 l 639 0 l 639 312 l 249 312 l 249 0 l 0 0 l 0 1111 l 249 1111 l 249 561 l 464 561 l 581 1110 l 842 1110 l 725 561 l 765 561 l 765 560 "},"ÿ":{"x_min":0,"x_max":888,"ha":1020,"o":"m 43 1333 l 246 1333 l 246 1168 l 43 1168 l 43 1333 m 650 1333 l 853 1333 l 853 1168 l 650 1168 l 650 1333 m 888 1109 l 888 -1 l 1 -1 l 1 248 l 639 248 l 639 408 l 0 408 l 0 1109 l 250 1109 l 250 658 l 639 658 l 639 1109 l 888 1109 "},"ц":{"x_min":0,"x_max":1046.734375,"ha":1217,"o":"m 613 248 l 613 1110 l 862 1110 l 862 248 l 1046 248 l 1046 -1 l 0 -1 l 0 1110 l 249 1110 l 249 248 l 613 248 "},"Л":{"x_min":-0.15625,"x_max":885,"ha":1017,"o":"m 636 861 l 480 861 l 256 -1 l 0 -1 l 224 861 l 52 861 l 52 1110 l 885 1110 l 885 -1 l 636 -1 l 636 861 "},"w":{"x_min":0,"x_max":1276,"ha":1423,"o":"m 249 1111 l 249 269 l 446 269 l 517 341 l 517 971 l 766 971 l 766 341 l 833 269 l 1029 269 l 1029 1111 l 1276 1111 l 1276 1 l 738 1 l 645 123 l 544 0 l 0 0 l 0 1111 l 249 1111 "},"$":{"x_min":-1.390625,"x_max":701.4375,"ha":775,"o":"m -1 1091 l 255 1091 l 255 1223 l 443 1223 l 443 1091 l 701 1091 l 701 857 l 233 857 l 233 666 l 701 666 l 701 -1 l 443 -1 l 443 -134 l 255 -134 l 255 -1 l -1 -1 l -1 233 l 466 233 l 466 431 l -1 431 l -1 1091 "},"\\":{"x_min":-55.5625,"x_max":591.71875,"ha":536,"o":"m -55 1036 l 38 1086 l 591 30 l 497 -19 l -55 1036 "},"о":{"x_min":0,"x_max":946,"ha":1078,"o":"m 0 0 l 0 1111 l 946 1111 l 946 0 l 0 0 m 697 249 l 697 862 l 249 862 l 249 249 l 697 249 "},"Д":{"x_min":0,"x_max":1033.390625,"ha":1138,"o":"m 775 -1 l 229 -1 l 229 -154 l 0 -154 l 0 248 l 123 248 l 293 1110 l 929 1110 l 929 248 l 1033 248 l 1032 -154 l 775 -154 l 775 -1 m 680 248 l 680 861 l 484 861 l 382 248 l 680 248 "},"Ì":{"x_min":-110.78125,"x_max":262.859375,"ha":407,"o":"m 7 -1 l 7 1110 l 256 1110 l 256 -1 l 7 -1 m 262 1180 l 8 1180 l -110 1431 l 143 1431 l 262 1180 "},"ъ":{"x_min":-0.421875,"x_max":1214,"ha":1306,"o":"m 576 1110 l 576 759 l 1214 759 l 1214 -1 l 326 -1 l 326 861 l 0 861 l 0 1110 l 576 1110 m 965 510 l 576 510 l 576 249 l 965 249 l 965 510 "},"-":{"x_min":35,"x_max":339,"ha":497,"o":"m 35 514 l 339 514 l 339 333 l 35 333 l 35 514 "},"ѕ":{"x_min":0,"x_max":886,"ha":1001,"o":"m 886 0 l 0 0 l 0 247 l 640 247 l 640 436 l 0 436 l 0 1111 l 886 1111 l 886 862 l 249 862 l 249 680 l 886 680 l 886 0 "},"Q":{"x_min":1,"x_max":941,"ha":1073,"o":"m 941 4 l 596 4 l 596 -165 l 347 -165 l 347 4 l 1 4 l 1 1110 l 941 1110 l 941 4 m 694 863 l 248 863 l 248 251 l 347 251 l 348 406 l 596 406 l 596 251 l 694 251 l 694 863 "},"Ш":{"x_min":0,"x_max":1138,"ha":1309,"o":"m 0 0 l 0 1111 l 249 1111 l 249 249 l 454 249 l 454 968 l 703 968 l 703 249 l 889 249 l 889 1111 l 1138 1111 l 1138 0 l 0 0 "},"M":{"x_min":0,"x_max":1112,"ha":1244,"o":"m 0 1111 l 250 1111 l 555 822 l 863 1111 l 1112 1111 l 1112 0 l 863 0 l 863 774 l 555 465 l 250 774 l 250 0 l 0 0 l 0 1111 "},"ј":{"x_min":5.140625,"x_max":601,"ha":786,"o":"m 601 0 l 5 0 l 5 249 l 351 249 l 351 1111 l 601 1111 l 601 0 "},"C":{"x_min":0,"x_max":869.890625,"ha":1001,"o":"m 0 -1 l 0 1110 l 869 1110 l 869 861 l 249 861 l 249 248 l 869 248 l 869 -1 l 0 -1 "},"!":{"x_min":0,"x_max":250,"ha":378,"o":"m 0 0 l 0 249 l 250 249 l 250 0 l 0 0 m 0 392 l 0 1111 l 250 1111 l 250 392 l 0 392 "},"Й":{"x_min":0,"x_max":864,"ha":996,"o":"m 864 1111 l 864 0 l 615 0 l 615 674 l 249 456 l 249 0 l 0 0 l 0 1111 l 249 1111 l 248 759 l 615 977 l 615 1111 l 864 1111 m 316 1028 l 316 1161 l 554 1161 l 554 1028 l 316 1028 "},"È":{"x_min":0,"x_max":871.28125,"ha":974,"o":"m 0 -1 l 0 1110 l 871 1110 l 871 861 l 249 861 l 249 691 l 735 691 l 735 442 l 249 442 l 249 248 l 871 248 l 871 -1 l 0 -1 m 628 1158 l 374 1158 l 255 1409 l 509 1409 l 628 1158 "},"{":{"x_min":-14.34375,"x_max":320,"ha":321,"o":"m 94 1006 l 320 1006 l 320 892 l 261 892 l 261 507 l 174 426 l 261 346 l 261 -43 l 320 -43 l 320 -157 l 94 -157 l 94 333 l -14 426 l 94 519 l 94 1006 "},"X":{"x_min":0,"x_max":834.78125,"ha":960,"o":"m 834 1 l 587 1 l 587 324 l 498 416 l 338 416 l 250 324 l 250 1 l 0 1 l 0 422 l 147 570 l 0 697 l 0 1113 l 250 1113 l 250 789 l 338 697 l 498 697 l 587 789 l 587 1113 l 834 1113 l 834 697 l 682 570 l 834 422 l 834 1 l 834 1 "},"#":{"x_min":20.828125,"x_max":687.5625,"ha":708,"o":"m 470 0 l 350 0 l 393 307 l 276 307 l 233 0 l 112 0 l 155 307 l 20 307 l 20 435 l 173 435 l 190 555 l 58 555 l 58 683 l 206 683 l 247 972 l 368 972 l 327 683 l 444 683 l 486 972 l 607 972 l 565 683 l 687 683 l 687 555 l 548 555 l 531 435 l 652 435 l 652 307 l 513 307 l 470 0 m 411 435 l 427 555 l 311 555 l 294 435 l 411 435 "},"Б":{"x_min":0,"x_max":873,"ha":1008,"o":"m 873 691 l 873 0 l 872 0 l 872 -1 l 0 -1 l 0 1110 l 872 1110 l 872 861 l 249 861 l 249 691 l 873 691 m 249 248 l 624 248 l 624 442 l 249 442 l 249 248 "},"г":{"x_min":0,"x_max":804.609375,"ha":854,"o":"m 0 1111 l 804 1111 l 804 862 l 249 862 l 249 0 l 0 0 l 0 1111 "},")":{"x_min":0.15625,"x_max":363,"ha":377,"o":"m 0 993 q 176 873 94 956 q 303 694 260 790 q 363 408 363 565 q 303 122 363 251 q 177 -55 260 26 q 0 -176 94 -139 l 0 14 q 171 408 171 132 q 0 802 171 683 l 0 993 "},"э":{"x_min":-2.78125,"x_max":719.5,"ha":792,"o":"m 719 755 l 719 352 l 409 0 l -2 0 l -2 238 l 308 238 l 481 435 l 141 435 l 141 673 l 481 673 l 308 870 l -2 870 l -2 1108 l 409 1108 l 719 755 "},"х":{"x_min":-8.328125,"x_max":929.234375,"ha":1010,"o":"m 648 0 l 504 439 l 412 439 l 266 0 l -8 0 l 195 556 l 8 1111 l 281 1111 l 412 675 l 504 675 l 633 1111 l 913 1111 l 726 556 l 929 0 l 648 0 "},"}":{"x_min":0,"x_max":334.34375,"ha":321,"o":"m 226 1006 l 226 519 l 334 426 l 226 333 l 226 -157 l 0 -157 l 0 -43 l 59 -43 l 59 346 l 145 426 l 59 507 l 59 892 l 0 892 l 0 1006 l 226 1006 "},"‰":{"x_min":55,"x_max":1454,"ha":1018,"o":"m 425 972 l 425 483 l 55 483 l 55 972 l 425 972 m 283 847 l 197 847 l 197 608 l 283 608 l 283 847 m 984 489 l 984 0 l 614 0 l 614 489 l 984 489 m 842 364 l 756 364 l 756 125 l 842 125 l 842 364 m 752 1045 l 847 994 l 294 -61 l 200 -10 l 752 1045 m 1454 489 l 1454 0 l 1085 0 l 1085 489 l 1454 489 m 1312 364 l 1227 364 l 1227 125 l 1312 125 l 1312 364 "},"Ä":{"x_min":-28.15625,"x_max":857,"ha":999,"o":"m 196 861 l 23 861 l 23 1110 l 857 1110 l 857 -1 l 608 -1 l 608 187 l 277 187 l 227 -1 l -28 -1 l 196 861 m 608 436 l 608 861 l 452 861 l 341 436 l 608 436 m 207 1328 l 410 1328 l 410 1163 l 207 1163 l 207 1328 m 550 1328 l 753 1328 l 753 1163 l 550 1163 l 550 1328 "},"ш":{"x_min":0,"x_max":1138,"ha":1309,"o":"m 0 0 l 0 1111 l 249 1111 l 249 249 l 454 249 l 454 968 l 703 968 l 703 249 l 889 249 l 889 1111 l 1138 1111 l 1138 0 l 0 0 "},"Я":{"x_min":0,"x_max":888,"ha":1020,"o":"m 888 1110 l 888 -1 l 639 -1 l 639 464 l 407 464 l 307 0 l 45 0 l 145 464 l 0 464 l 0 1110 l 888 1110 m 639 711 l 639 861 l 249 861 l 249 711 l 639 711 "},"Ч":{"x_min":0,"x_max":888,"ha":1020,"o":"m 0 1110 l 250 1110 l 250 658 l 639 658 l 639 1110 l 888 1110 l 888 -1 l 639 -1 l 639 408 l 0 408 l 0 1110 "},"a":{"x_min":0,"x_max":856,"ha":1017,"o":"m 27 437 l 173 862 l 0 862 l 0 1111 l 856 1111 l 856 0 l 607 0 l 607 189 l 276 189 l 276 0 l 27 0 l 27 437 m 290 438 l 607 438 l 607 862 l 413 862 l 290 438 "},"—":{"x_min":5.5625,"x_max":1136.203125,"ha":1327,"o":"m 5 514 l 1136 514 l 1136 333 l 5 333 l 5 514 "},"=":{"x_min":13.890625,"x_max":583.375,"ha":597,"o":"m 583 667 l 583 542 l 13 542 l 13 667 l 583 667 m 583 442 l 583 317 l 13 317 l 13 442 l 583 442 "},"N":{"x_min":0,"x_max":864,"ha":996,"o":"m 249 1111 l 249 977 l 615 759 l 615 1111 l 864 1111 l 864 0 l 615 0 l 615 456 l 249 674 l 249 0 l 0 0 l 0 1111 l 249 1111 "},"ú":{"x_min":0,"x_max":866,"ha":998,"o":"m 249 0 l 0 0 l 0 1111 l 249 1111 l 248 270 l 617 383 l 617 1111 l 866 1111 l 866 0 l 617 0 l 617 112 l 249 0 m 418 1380 l 637 1380 l 518 1129 l 298 1129 l 418 1380 "},"д":{"x_min":28,"x_max":1046.390625,"ha":1138,"o":"m 788 -1 l 268 -1 l 268 -154 l 28 -154 l 28 248 l 151 248 l 50 1110 l 942 1110 l 942 248 l 1046 248 l 1045 -154 l 788 -154 l 788 -1 m 693 248 l 693 861 l 334 861 l 411 248 l 693 248 "},"2":{"x_min":0,"x_max":855.625,"ha":985,"o":"m 0 1110 l 855 1110 l 855 619 l 247 325 l 247 246 l 855 246 l 855 -1 l 0 -1 l 0 485 l 607 772 l 607 863 l 248 863 l 248 718 l 0 718 l 0 1110 "},"М":{"x_min":0,"x_max":1112,"ha":1244,"o":"m 0 1111 l 250 1111 l 555 822 l 863 1111 l 1112 1111 l 1112 0 l 863 0 l 863 774 l 555 465 l 250 774 l 250 0 l 0 0 l 0 1111 "},"ü":{"x_min":0,"x_max":866,"ha":998,"o":"m 249 0 l 0 0 l 0 1111 l 249 1111 l 248 270 l 617 383 l 617 1111 l 866 1111 l 866 0 l 617 0 l 617 112 l 249 0 m 153 1338 l 356 1338 l 356 1173 l 153 1173 l 153 1338 m 496 1338 l 699 1338 l 699 1173 l 496 1173 l 496 1338 "},"Z":{"x_min":0.0625,"x_max":886,"ha":997,"o":"m 0 484 l 639 771 l 639 862 l 0 862 l 0 1111 l 886 1111 l 886 620 l 247 326 l 247 247 l 886 247 l 886 0 l 0 0 l 0 484 "},"ь":{"x_min":0,"x_max":888,"ha":980,"o":"m 888 -1 l 0 -1 l 0 1110 l 249 1110 l 249 759 l 888 759 l 888 -1 m 639 510 l 249 510 l 249 249 l 639 249 l 639 510 "},"u":{"x_min":0,"x_max":866,"ha":998,"o":"m 249 0 l 0 0 l 0 1111 l 249 1111 l 248 270 l 617 383 l 617 1111 l 866 1111 l 866 0 l 617 0 l 617 112 l 249 0 "},"Ó":{"x_min":0,"x_max":945,"ha":1077,"o":"m 0 0 l 0 1111 l 945 1111 l 945 0 l 0 0 m 696 249 l 696 862 l 249 862 l 249 249 l 696 249 m 447 1397 l 667 1397 l 547 1146 l 327 1146 l 447 1397 "},"k":{"x_min":0,"x_max":888,"ha":1010,"o":"m 888 561 l 888 0 l 639 0 l 639 312 l 249 312 l 249 0 l 0 0 l 0 1111 l 249 1111 l 249 561 l 464 561 l 581 1110 l 842 1110 l 725 561 l 888 561 "},"З":{"x_min":-1.328125,"x_max":763,"ha":887,"o":"m -1 -1 l -1 246 l 514 246 l 514 420 l 229 420 l 229 665 l 465 864 l -1 864 l -1 1110 l 763 1110 l 763 865 l 518 665 l 763 665 l 763 -1 l -1 -1 "},"в":{"x_min":0,"x_max":872,"ha":1001,"o":"m 872 1094 l 872 662 l 749 552 l 872 468 l 872 0 l 871 0 l 871 -1 l 0 -1 l 0 1110 l 871 1110 l 871 1094 l 872 1094 m 531 442 l 249 442 l 249 248 l 604 248 l 604 374 l 531 442 m 531 691 l 604 761 l 604 861 l 249 861 l 249 691 l 531 691 "},"С":{"x_min":0,"x_max":869.890625,"ha":1001,"o":"m 0 -1 l 0 1110 l 869 1110 l 869 861 l 249 861 l 249 248 l 869 248 l 869 -1 l 0 -1 "},"é":{"x_min":0,"x_max":931,"ha":963,"o":"m 0 0 l 0 1110 l 931 1110 l 815 418 l 249 418 l 249 247 l 871 247 l 871 0 l 0 0 m 249 667 l 596 667 l 628 861 l 249 861 l 249 667 m 420 1421 l 640 1421 l 520 1170 l 301 1170 l 420 1421 "},"s":{"x_min":0,"x_max":886,"ha":1001,"o":"m 886 0 l 0 0 l 0 247 l 640 247 l 640 436 l 0 436 l 0 1111 l 886 1111 l 886 862 l 249 862 l 249 680 l 886 680 l 886 0 "},"B":{"x_min":0,"x_max":901.390625,"ha":1026,"o":"m 900 662 l 777 552 l 900 468 l 900 0 l 0 0 l 0 1110 l 901 1110 l 900 662 m 559 442 l 249 442 l 249 247 l 632 247 l 632 373 l 559 442 m 559 691 l 632 761 l 632 861 l 249 861 l 249 691 l 559 691 "},"…":{"x_min":0,"x_max":1109,"ha":370,"o":"m 0 3 l 0 240 l 238 240 l 238 3 l 0 3 m 450 0 l 450 238 l 688 237 l 688 0 l 450 0 m 871 1 l 871 239 l 1109 238 l 1109 1 l 871 1 "},"В":{"x_min":0,"x_max":873.390625,"ha":1001,"o":"m 872 662 l 749 552 l 872 468 l 872 0 l 0 0 l 0 1110 l 873 1110 l 872 662 m 531 442 l 249 442 l 249 247 l 604 247 l 604 373 l 531 442 m 531 691 l 604 761 l 604 861 l 249 861 l 249 691 l 531 691 "},"І":{"x_min":0,"x_max":0,"ha":1157},"?":{"x_min":-1.390625,"x_max":854.234375,"ha":968,"o":"m 220 222 l 468 222 l 468 0 l 220 0 l 220 222 m 220 306 l 220 598 l 605 775 l 605 865 l 247 865 l 247 720 l -1 720 l -1 1112 l 854 1112 l 854 622 l 468 438 l 468 306 l 220 306 "},"H":{"x_min":0,"x_max":885,"ha":1017,"o":"m 885 1110 l 885 -1 l 636 -1 l 636 546 l 249 546 l 249 -1 l 0 -1 l 0 1110 l 249 1110 l 249 795 l 636 795 l 636 1110 l 885 1110 "},"c":{"x_min":0,"x_max":869.890625,"ha":970,"o":"m 0 0 l 0 1110 l 869 1110 l 869 861 l 249 861 l 249 247 l 869 247 l 869 0 l 0 0 "},"¶":{"x_min":35,"x_max":624.5,"ha":645,"o":"m 263 0 l 263 498 l 35 498 l 35 972 l 624 972 l 624 868 l 562 868 l 562 0 l 458 0 l 458 868 l 368 868 l 368 0 l 263 0 "},"•":{"x_min":55.5625,"x_max":472.265625,"ha":528,"o":"m 55 443 q 116 589 55 528 q 263 651 177 651 q 411 589 350 651 q 472 443 472 528 q 411 296 472 357 q 263 235 350 235 q 116 296 177 235 q 55 443 55 357 "},"н":{"x_min":0,"x_max":885,"ha":1017,"o":"m 885 1110 l 885 -1 l 636 -1 l 636 546 l 249 546 l 249 -1 l 0 -1 l 0 1110 l 249 1110 l 249 795 l 636 795 l 636 1110 l 885 1110 "},"(":{"x_min":14,"x_max":376.84375,"ha":376,"o":"m 376 -176 q 199 -55 282 -139 q 73 122 116 26 q 14 408 14 251 q 73 694 14 565 q 200 873 116 790 q 376 993 282 956 l 376 802 q 206 408 206 683 q 376 14 206 132 l 376 -176 "},"U":{"x_min":0,"x_max":904,"ha":1030,"o":"m 0 0 l 0 1111 l 249 1111 l 249 250 l 657 250 l 657 1111 l 904 1111 l 904 0 l 0 0 "},"F":{"x_min":0,"x_max":871.28125,"ha":932,"o":"m 0 -1 l 0 1110 l 871 1110 l 871 861 l 249 861 l 249 691 l 735 691 l 735 442 l 249 442 l 249 -1 l 0 -1 "},"м":{"x_min":0,"x_max":1112,"ha":1244,"o":"m 0 1111 l 250 1111 l 555 822 l 863 1111 l 1112 1111 l 1112 0 l 863 0 l 863 774 l 555 465 l 250 774 l 250 0 l 0 0 l 0 1111 "},"з":{"x_min":-1.328125,"x_max":763,"ha":862,"o":"m -1 -1 l -1 246 l 514 246 l 514 420 l 229 420 l 229 665 l 465 864 l -1 864 l -1 1110 l 763 1110 l 763 865 l 518 665 l 763 665 l 763 -1 l -1 -1 "},":":{"x_min":0,"x_max":238,"ha":369,"o":"m 0 605 l 0 843 l 238 843 l 238 605 l 0 605 m 0 3 l 0 241 l 238 241 l 238 3 l 0 3 "},"і":{"x_min":0,"x_max":250,"ha":376,"o":"m 250 1111 l 250 861 l 0 861 l 0 1111 l 250 1111 m 250 718 l 250 0 l 0 0 l 0 718 l 250 718 "},"*":{"x_min":-5.5625,"x_max":576.4375,"ha":600,"o":"m 179 761 l -5 891 l 219 891 l 286 1103 l 356 891 l 576 891 l 398 761 l 469 549 l 286 680 l 108 549 l 179 761 l 179 761 "},"Ќ":{"x_min":0,"x_max":888,"ha":1007,"o":"m 725 550 l 842 0 l 581 0 l 464 550 l 249 550 l 249 0 l 0 0 l 0 1111 l 249 1111 l 249 799 l 639 799 l 639 1111 l 888 1111 l 888 550 l 765 550 l 725 550 m 454 1380 l 673 1380 l 554 1129 l 334 1129 l 454 1380 "},"V":{"x_min":0,"x_max":885.171875,"ha":915,"o":"m 596 0 l 0 0 l 0 1111 l 249 1111 l 249 249 l 404 249 l 629 1111 l 885 1111 l 596 0 "}," ":{"x_min":0,"x_max":0,"ha":703},"У":{"x_min":0,"x_max":888,"ha":1020,"o":"m 888 1110 l 888 -1 l 1 -1 l 1 248 l 639 248 l 639 408 l 0 408 l 0 1110 l 250 1110 l 250 658 l 639 658 l 639 1110 l 888 1110 "},"0":{"x_min":17,"x_max":850,"ha":1019,"o":"m 17 0 l 17 1111 l 850 1111 l 850 0 l 17 0 m 601 249 l 601 862 l 266 862 l 266 249 l 601 249 "},"”":{"x_min":0,"x_max":557,"ha":676,"o":"m 0 953 l 0 1220 l 238 1220 l 238 1062 l 0 953 m 319 953 l 319 1220 l 557 1220 l 557 1062 l 319 953 "},"@":{"x_min":0,"x_max":1019.53125,"ha":1135,"o":"m 244 786 l 337 732 l 318 732 l 277 754 l 240 715 l 298 687 l 337 705 l 365 705 l 401 640 l 327 670 l 256 630 l 201 657 l 166 691 l 166 734 l 244 786 m 268 620 l 302 640 l 325 623 l 326 607 l 268 620 m 641 456 l 687 615 l 748 648 l 779 618 l 779 587 l 743 593 l 762 573 l 743 531 l 707 544 l 687 476 l 641 456 m 702 483 l 716 526 l 741 516 l 730 493 l 702 483 m 52 426 l 115 454 l 236 408 l 304 398 l 331 329 l 304 301 l 268 338 l 213 300 l 193 300 l 134 329 l 102 312 l 52 426 m 122 375 l 144 375 l 204 362 l 144 397 l 113 381 l 122 375 m 51 500 l 87 555 l 141 537 l 165 537 l 165 562 l 206 547 l 191 498 l 170 477 l 113 494 l 76 479 l 51 500 m 122 690 l 113 666 l 76 704 l 102 730 l 122 690 m 1019 737 l 1009 487 l 979 369 l 897 286 l 801 0 l 657 0 l 676 30 l 629 50 l 612 0 l 538 0 l 636 318 l 612 341 l 590 275 l 505 238 l 484 180 l 501 141 l 448 0 l 323 0 l 277 84 l 226 101 l 156 66 l 0 134 l 22 155 l 113 205 l 131 309 l 159 281 l 163 238 l 213 213 l 258 208 l 273 265 l 312 283 l 363 231 l 556 333 l 572 398 l 633 423 l 638 395 l 766 462 l 813 611 l 768 701 l 663 648 l 645 587 l 602 608 l 556 597 l 526 665 l 548 754 l 579 765 l 593 725 l 645 701 l 657 737 l 638 794 l 783 859 l 901 815 l 948 832 q 895 950 916 901 q 859 1030 873 1000 q 780 1084 815 1059 q 569 1114 669 1114 q 345 1087 472 1114 q 181 948 247 1068 l 105 743 l 87 730 l 165 955 q 338 1111 233 1090 q 472 1132 412 1125 q 581 1139 533 1139 q 790 1111 679 1139 l 884 1051 l 1004 776 l 1004 768 l 1019 737 "},"ö":{"x_min":0,"x_max":946,"ha":1071,"o":"m 0 0 l 0 1111 l 946 1111 l 946 0 l 0 0 m 697 249 l 697 862 l 249 862 l 249 249 l 697 249 m 192 1345 l 395 1345 l 395 1180 l 192 1180 l 192 1345 m 535 1345 l 738 1345 l 738 1180 l 535 1180 l 535 1345 "},"i":{"x_min":0,"x_max":250,"ha":376,"o":"m 250 1111 l 250 861 l 0 861 l 0 1111 l 250 1111 m 250 718 l 250 0 l 0 0 l 0 718 l 250 718 "},"ќ":{"x_min":0,"x_max":888,"ha":1010,"o":"m 765 560 l 888 560 l 888 0 l 639 0 l 639 312 l 249 312 l 249 0 l 0 0 l 0 1111 l 249 1111 l 249 561 l 464 561 l 581 1110 l 842 1110 l 725 561 l 765 561 l 765 560 m 455 1380 l 675 1380 l 555 1129 l 336 1129 l 455 1380 "},"ё":{"x_min":146,"x_max":692,"ha":964,"o":"m 146 1336 l 349 1336 l 349 1171 l 146 1171 l 146 1336 m 489 1336 l 692 1336 l 692 1171 l 489 1171 l 489 1336 "},"]":{"x_min":-57,"x_max":226,"ha":282,"o":"m 226 1131 l 226 -32 l -57 -32 l -57 81 l 2 81 l 2 1017 l -57 1017 l -57 1131 l 226 1131 "},"А":{"x_min":-28.15625,"x_max":857,"ha":999,"o":"m 196 861 l 23 861 l 23 1110 l 857 1110 l 857 -1 l 608 -1 l 608 187 l 277 187 l 227 -1 l -28 -1 l 196 861 m 608 436 l 608 861 l 452 861 l 341 436 l 608 436 "},"m":{"x_min":0,"x_max":1276,"ha":1393,"o":"m 0 0 l 0 1111 l 544 1111 l 645 987 l 738 1110 l 1276 1110 l 1276 0 l 1029 0 l 1029 842 l 833 842 l 766 769 l 766 0 l 517 0 l 517 769 l 446 842 l 249 842 l 249 0 l 0 0 "},"Ы":{"x_min":0,"x_max":1220,"ha":1352,"o":"m 888 -1 l 0 -1 l 0 1110 l 249 1110 l 249 759 l 888 759 l 888 -1 m 639 510 l 249 510 l 249 249 l 639 249 l 639 510 m 970 -1 l 970 1110 l 1220 1110 l 1220 -1 l 970 -1 "},"Е":{"x_min":0,"x_max":872.671875,"ha":976,"o":"m 0 -1 l 0 1110 l 872 1110 l 872 861 l 249 861 l 249 691 l 735 691 l 735 442 l 249 442 l 249 248 l 872 248 l 872 -1 l 0 -1 "},"8":{"x_min":0,"x_max":769.5,"ha":871,"o":"m 522 883 l 250 883 l 250 752 l 338 660 l 433 660 l 522 752 l 522 883 m 0 3 l 0 430 l 147 558 l 0 684 l 0 1114 l 769 1114 l 769 684 l 616 558 l 769 430 l 769 3 l 0 3 m 522 356 l 433 447 l 338 447 l 250 356 l 250 234 l 522 234 l 522 356 "},"Э":{"x_min":-2.78125,"x_max":719.5,"ha":792,"o":"m 719 755 l 719 352 l 409 0 l -2 0 l -2 238 l 308 238 l 481 435 l 141 435 l 141 673 l 481 673 l 308 870 l -2 870 l -2 1108 l 409 1108 l 719 755 "},"R":{"x_min":0,"x_max":930,"ha":1083,"o":"m 930 1111 l 930 446 l 784 446 l 884 0 l 622 0 l 522 446 l 249 446 l 249 0 l 0 0 l 0 1111 l 930 1111 m 681 692 l 681 862 l 249 862 l 249 692 l 681 692 "},"ю":{"x_min":-2,"x_max":1371,"ha":1524,"o":"m 1371 1108 l 1371 -3 l 401 -3 l 401 521 l 247 521 l 247 -1 l -2 -1 l -2 1108 l 247 1108 l 247 770 l 401 770 l 401 1108 l 1371 1108 m 1108 859 l 661 859 l 661 246 l 1108 246 l 1108 859 "},"á":{"x_min":0.28125,"x_max":856,"ha":1017,"o":"m 28 437 l 173 862 l 0 862 l 0 1111 l 856 1111 l 856 0 l 607 0 l 607 189 l 267 189 l 267 0 l 28 0 l 28 437 m 296 438 l 607 438 l 607 862 l 419 862 l 296 438 m 525 1401 l 744 1401 l 625 1150 l 405 1150 l 525 1401 "},"o":{"x_min":0,"x_max":946,"ha":1071,"o":"m 0 0 l 0 1111 l 946 1111 l 946 0 l 0 0 m 697 249 l 697 862 l 249 862 l 249 249 l 697 249 "},"5":{"x_min":-1,"x_max":845,"ha":944,"o":"m 845 0 l -1 0 l -1 329 l 228 329 l 228 229 l 614 229 l 614 497 l -1 497 l -1 1108 l 845 1108 l 845 879 l 228 879 l 228 719 l 845 719 l 845 0 "},"Ѕ":{"x_min":0,"x_max":886,"ha":1001,"o":"m 886 0 l 0 0 l 0 247 l 640 247 l 640 436 l 0 436 l 0 1111 l 886 1111 l 886 862 l 249 862 l 249 680 l 886 680 l 886 0 "},"п":{"x_min":0,"x_max":885,"ha":1018,"o":"m 885 1110 l 885 -1 l 638 -1 l 638 861 l 249 861 l 249 -1 l 0 -1 l 0 1110 l 885 1110 "},"7":{"x_min":0,"x_max":812.5625,"ha":908,"o":"m 812 1111 l 812 877 l 447 0 l 176 0 l 545 869 l 247 869 l 247 766 l 0 766 l 0 1111 l 812 1111 "},"K":{"x_min":0,"x_max":888,"ha":1007,"o":"m 725 550 l 842 0 l 581 0 l 464 550 l 249 550 l 249 0 l 0 0 l 0 1111 l 249 1111 l 249 799 l 639 799 l 639 1111 l 888 1111 l 888 550 l 725 550 "},",":{"x_min":0,"x_max":238,"ha":369,"o":"m 0 -181 l 0 86 l 238 86 l 238 -71 l 0 -181 "},"d":{"x_min":1.71875,"x_max":976.796875,"ha":1061,"o":"m 121 -1 l 117 861 l 1 861 l 1 1110 l 750 1110 l 976 247 l 976 -1 l 121 -1 m 555 861 l 353 861 l 353 248 l 718 248 l 555 861 "},"¨":{"x_min":92,"x_max":638,"ha":0,"o":"m 92 1244 l 295 1244 l 295 1079 l 92 1079 l 92 1244 m 435 1244 l 638 1244 l 638 1079 l 435 1079 l 435 1244 "},"E":{"x_min":0,"x_max":871.28125,"ha":974,"o":"m 0 -1 l 0 1110 l 871 1110 l 871 861 l 249 861 l 249 691 l 735 691 l 735 442 l 249 442 l 249 248 l 871 248 l 871 -1 l 0 -1 "},"Y":{"x_min":0,"x_max":888,"ha":1028,"o":"m 330 -1 l 330 410 l 0 410 l 0 1110 l 249 1110 l 249 659 l 638 659 l 638 1110 l 888 1110 l 888 410 l 579 410 l 579 -1 l 330 -1 "},"\"":{"x_min":48.609375,"x_max":491.703125,"ha":540,"o":"m 48 972 l 226 972 l 173 671 l 101 671 l 48 972 m 313 972 l 491 972 l 438 671 l 366 671 l 313 972 "},"Ï":{"x_min":-128,"x_max":418,"ha":419,"o":"m 6 -1 l 6 1110 l 255 1110 l 255 -1 l 6 -1 m -128 1350 l 75 1350 l 75 1185 l -128 1185 l -128 1350 m 215 1350 l 418 1350 l 418 1185 l 215 1185 l 215 1350 "},"„":{"x_min":0,"x_max":557,"ha":676,"o":"m 0 -268 l 0 -1 l 238 -1 l 238 -158 l 0 -268 m 319 -268 l 319 -1 l 557 -1 l 557 -158 l 319 -268 "},"ч":{"x_min":0,"x_max":888,"ha":1020,"o":"m 0 1110 l 250 1110 l 250 658 l 639 658 l 639 1110 l 888 1110 l 888 -1 l 639 -1 l 639 408 l 0 408 l 0 1110 "},"´":{"x_min":373.640625,"x_max":712.5625,"ha":1157,"o":"m 493 1380 l 712 1380 l 593 1129 l 373 1129 l 493 1380 "},"Í":{"x_min":7,"x_max":365.390625,"ha":419,"o":"m 7 -1 l 7 1110 l 256 1110 l 256 -1 l 7 -1 m 145 1380 l 365 1380 l 245 1129 l 26 1129 l 145 1380 "},"ì":{"x_min":-123.625,"x_max":250.015625,"ha":376,"o":"m 0 718 l 0 0 l 250 0 l 250 718 l 0 718 m 250 860 l -4 860 l -123 1111 l 130 1111 l 250 860 "},"|":{"x_min":56,"x_max":167,"ha":222,"o":"m 56 0 l 56 972 l 167 972 l 167 0 l 56 0 "},"Ú":{"x_min":0,"x_max":904,"ha":1018,"o":"m 0 0 l 0 1111 l 249 1111 l 249 250 l 657 250 l 657 1111 l 904 1111 l 904 0 l 0 0 m 459 1380 l 679 1380 l 559 1129 l 340 1129 l 459 1380 "},"§":{"x_min":64,"x_max":666,"ha":638,"o":"m 64 1113 l 666 1113 l 666 930 l 286 930 l 286 806 l 666 806 l 666 0 l 64 0 l 64 183 l 444 183 l 444 307 l 64 307 l 64 1113 m 444 631 l 286 631 l 286 482 l 444 482 l 444 631 "},"Ý":{"x_min":0,"x_max":888,"ha":1028,"o":"m 330 -1 l 330 410 l 0 410 l 0 1110 l 249 1110 l 249 659 l 638 659 l 638 1110 l 888 1110 l 888 410 l 579 410 l 579 -1 l 330 -1 m 423 1399 l 643 1399 l 524 1148 l 304 1148 l 423 1399 "},"љ":{"x_min":-0.15625,"x_max":1524,"ha":1699,"o":"m 1524 -1 l 636 -1 l 636 861 l 480 861 l 256 -1 l 0 -1 l 224 861 l 52 861 l 52 1110 l 885 1110 l 885 759 l 1524 759 l 1524 -1 m 1275 510 l 885 510 l 885 249 l 1275 249 l 1275 510 "},"И":{"x_min":0,"x_max":864,"ha":996,"o":"m 864 1111 l 864 0 l 615 0 l 615 674 l 249 456 l 249 0 l 0 0 l 0 1111 l 249 1111 l 248 759 l 615 977 l 615 1111 l 864 1111 "},"й":{"x_min":0,"x_max":866,"ha":998,"o":"m 249 0 l 0 0 l 0 1111 l 249 1111 l 248 270 l 617 383 l 617 1111 l 866 1111 l 866 0 l 617 0 l 617 112 l 249 0 m 312 1085 l 312 1218 l 550 1218 l 550 1085 l 312 1085 "},"Љ":{"x_min":-0.15625,"x_max":1524,"ha":1699,"o":"m 1524 -1 l 636 -1 l 636 861 l 480 861 l 256 -1 l 0 -1 l 224 861 l 52 861 l 52 1110 l 885 1110 l 885 759 l 1524 759 l 1524 -1 m 1275 510 l 885 510 l 885 249 l 1275 249 l 1275 510 "},"b":{"x_min":0,"x_max":901.390625,"ha":1001,"o":"m 900 662 l 777 552 l 900 468 l 900 0 l 0 0 l 0 1110 l 901 1110 l 900 662 m 559 442 l 249 442 l 249 247 l 632 247 l 632 373 l 559 442 m 559 691 l 632 761 l 632 861 l 249 861 l 249 691 l 559 691 "},"q":{"x_min":2,"x_max":942,"ha":1057,"o":"m 942 4 l 594 4 l 594 -165 l 347 -165 l 347 4 l 2 4 l 2 1110 l 942 1110 l 942 4 m 695 863 l 249 863 l 249 251 l 347 251 l 347 406 l 594 406 l 594 251 l 695 251 l 695 863 "},"р":{"x_min":0,"x_max":924.0625,"ha":979,"o":"m 794 351 l 249 351 l 249 0 l 0 0 l 0 1111 l 924 1111 l 794 351 m 635 862 l 249 862 l 249 600 l 578 600 l 635 862 "},"т":{"x_min":0,"x_max":1138,"ha":1303,"o":"m 1138 1111 l 1138 0 l 889 0 l 889 862 l 684 862 l 684 141 l 435 141 l 435 862 l 249 862 l 249 0 l 0 0 l 0 1111 l 1138 1111 "},"П":{"x_min":0,"x_max":885,"ha":1018,"o":"m 885 1110 l 885 -1 l 638 -1 l 638 861 l 249 861 l 249 -1 l 0 -1 l 0 1110 l 885 1110 "},"Ö":{"x_min":0,"x_max":945,"ha":1077,"o":"m 0 0 l 0 1111 l 945 1111 l 945 0 l 0 0 m 696 249 l 696 862 l 249 862 l 249 249 l 696 249 m 200 1337 l 403 1337 l 403 1172 l 200 1172 l 200 1337 m 543 1337 l 746 1337 l 746 1172 l 543 1172 l 543 1337 "},"z":{"x_min":0.0625,"x_max":886,"ha":1014,"o":"m 0 484 l 639 771 l 639 862 l 0 862 l 0 1111 l 886 1111 l 886 620 l 247 326 l 247 247 l 886 247 l 886 0 l 0 0 l 0 484 "},"Ж":{"x_min":0,"x_max":1303,"ha":1424,"o":"m 1138 550 l 1257 0 l 995 0 l 877 550 l 776 550 l 776 -1 l 527 -1 l 526 -1 l 526 550 l 424 550 l 306 0 l 45 0 l 163 550 l 0 550 l 0 1110 l 249 1110 l 249 797 l 526 797 l 526 1110 l 775 1110 l 776 1110 l 776 797 l 1054 797 l 1054 1110 l 1303 1110 l 1303 550 l 1138 550 "},"®":{"x_min":58.21875,"x_max":964.296875,"ha":1061,"o":"m 943 192 q 893 196 914 192 q 864 208 882 200 q 868 192 868 204 q 844 202 853 192 q 830 213 835 213 l 837 208 q 833 198 833 205 l 828 205 l 815 179 q 818 187 818 187 q 808 202 818 193 q 799 218 799 211 l 811 218 q 804 232 804 225 q 825 218 812 232 q 837 227 837 218 q 904 201 872 209 q 964 191 936 193 l 943 192 m 929 477 q 893 446 929 446 q 868 451 885 446 q 847 458 851 457 q 823 424 823 438 q 833 408 823 419 q 848 396 843 396 q 875 416 860 396 q 873 424 875 423 l 873 428 q 871 443 872 440 q 871 440 871 446 q 885 426 879 440 q 892 404 892 413 q 871 373 892 387 q 855 359 858 363 q 866 358 860 359 q 875 357 872 357 q 886 363 879 357 q 897 370 893 370 q 890 350 897 365 q 879 332 883 334 q 867 318 871 318 l 828 318 q 825 313 825 318 q 830 298 825 308 q 835 283 835 288 q 811 291 828 291 q 818 279 811 286 q 829 273 825 273 q 822 270 828 273 q 786 291 803 270 q 769 252 769 259 q 773 240 769 245 q 747 191 773 218 q 732 169 733 177 l 729 173 l 725 169 q 729 166 726 169 l 732 165 q 722 154 725 154 q 709 161 714 154 q 712 162 711 161 l 714 162 q 712 164 712 164 q 708 165 712 165 q 700 152 704 165 q 690 139 696 140 l 677 139 q 672 132 675 139 l 672 148 q 639 136 655 148 q 623 110 623 125 l 627 106 q 612 95 623 106 q 601 81 601 85 q 605 75 601 76 l 588 58 l 591 41 q 566 14 591 14 l 197 14 q 194 18 194 14 q 203 39 194 37 l 203 40 q 201 45 203 43 l 208 52 q 203 61 208 48 q 208 62 205 62 l 210 65 l 210 77 q 215 88 212 80 q 226 109 219 95 q 235 144 235 129 l 223 138 q 212 140 220 138 q 191 144 205 141 q 195 150 191 144 q 205 162 199 155 q 215 175 210 169 q 220 186 220 182 q 230 243 230 220 q 201 266 230 251 q 194 291 194 273 q 181 294 189 291 q 175 291 178 294 q 178 284 175 287 l 177 283 l 175 283 q 168 290 173 283 q 163 297 164 297 q 156 291 156 297 q 171 272 156 287 q 163 261 164 261 q 129 300 139 261 q 126 316 127 309 q 124 325 125 322 q 115 341 122 330 q 109 359 109 351 q 131 379 109 366 l 134 382 q 126 396 134 396 q 118 379 118 396 q 111 397 112 379 q 108 407 109 402 q 102 416 108 411 q 83 501 83 452 q 83 510 83 504 q 84 527 83 516 l 86 558 q 87 574 87 569 q 87 580 87 579 q 77 578 84 578 l 67 576 q 81 592 81 586 q 58 599 81 599 l 70 608 l 58 611 q 67 625 59 619 l 84 633 q 99 649 94 637 q 101 652 101 651 l 104 656 q 105 659 105 658 q 115 649 109 649 q 130 669 120 654 q 141 691 141 685 q 115 674 128 691 q 123 693 115 684 q 131 703 131 702 q 105 719 131 713 q 121 729 116 719 q 119 746 120 735 q 119 767 119 756 q 131 823 119 779 l 134 840 q 153 875 135 850 l 163 887 l 181 907 q 185 919 181 900 q 291 1007 203 979 q 322 1015 302 1010 q 369 1030 341 1021 q 393 1045 380 1037 q 420 1060 406 1053 q 429 1062 429 1062 q 463 1068 444 1065 q 505 1074 483 1071 q 520 1075 512 1075 q 534 1075 527 1075 q 697 1030 605 1075 q 725 1007 707 1020 q 758 983 743 994 q 782 944 767 976 q 799 899 797 912 l 799 868 q 801 869 799 872 q 805 861 803 866 q 809 849 807 855 q 811 841 811 843 q 808 830 811 838 q 805 815 808 824 q 800 795 803 805 q 794 774 797 784 q 792 759 792 765 q 867 672 792 711 q 919 652 900 654 q 921 648 919 649 l 922 642 q 880 637 883 638 q 878 629 879 633 q 875 620 876 624 q 862 605 871 616 l 878 595 l 893 613 l 901 613 q 896 602 901 609 q 886 588 892 595 q 876 574 880 580 q 871 563 871 567 q 872 552 871 555 l 873 536 q 875 524 875 529 q 873 514 875 522 q 871 502 871 506 q 898 461 871 469 q 929 477 917 461 m 773 188 q 770 183 773 186 l 766 186 q 773 188 769 188 m 882 125 q 851 98 882 119 q 820 68 820 77 q 829 58 820 58 q 841 59 833 58 q 852 61 848 61 q 780 29 841 44 q 736 14 748 23 l 697 14 q 739 33 698 18 q 766 65 747 37 q 782 88 776 79 q 789 102 787 97 q 794 148 789 122 q 811 157 795 157 q 822 148 816 157 q 833 139 827 139 q 846 140 837 139 q 861 142 855 142 q 882 125 882 142 m 646 14 l 608 14 q 621 27 614 19 q 640 45 629 34 q 650 87 640 62 q 671 122 661 119 q 694 125 682 125 q 703 116 703 125 l 646 14 m 141 105 l 121 75 q 109 68 117 68 q 102 83 102 68 q 134 105 120 105 l 141 105 m 185 14 l 171 14 l 171 20 l 185 20 l 185 14 m 155 83 l 154 82 l 154 80 q 137 14 137 52 l 102 14 q 119 37 112 19 q 131 65 126 57 q 150 83 140 83 l 155 83 m 98 35 q 86 20 98 19 l 83 19 q 98 35 87 35 m 570 975 q 566 980 569 977 q 560 987 563 983 q 562 993 560 990 l 562 1000 q 563 1005 562 1004 q 549 995 558 998 l 534 995 q 541 986 541 988 l 541 969 q 549 973 545 969 l 555 976 l 562 976 l 570 975 m 736 633 q 733 660 736 644 q 729 698 731 676 q 724 737 726 721 q 722 764 722 753 q 725 781 722 769 q 729 800 729 793 q 545 885 687 885 q 392 865 467 885 q 293 777 293 837 l 293 768 q 299 765 298 765 q 312 768 304 765 l 349 786 q 395 779 367 783 q 458 770 422 776 q 490 751 474 765 l 490 742 l 487 719 l 487 704 q 497 684 497 684 q 486 659 497 659 q 476 669 476 659 l 467 662 q 465 664 465 664 q 467 671 467 667 q 466 674 467 674 l 462 674 l 459 673 l 459 683 q 458 691 458 687 q 465 707 458 695 q 435 709 449 707 l 423 713 q 402 704 417 704 q 387 706 396 704 q 374 709 378 709 q 402 694 377 698 q 394 689 401 691 q 369 673 387 688 q 358 664 363 667 q 353 669 353 664 l 306 669 q 293 649 293 669 q 305 623 293 644 q 319 598 319 604 q 322 600 320 600 q 324 603 323 601 q 338 573 338 603 l 344 573 l 344 579 q 366 544 366 565 l 366 532 q 355 529 366 529 q 344 532 347 529 q 341 529 341 532 q 376 490 341 507 q 420 518 376 507 q 451 532 442 523 q 462 544 458 539 q 469 552 466 550 q 447 564 469 562 q 426 573 437 564 q 435 582 426 582 l 435 573 l 442 573 q 479 603 447 603 q 497 597 486 603 q 515 591 509 591 q 531 593 520 591 q 549 596 542 596 l 559 596 q 566 584 566 591 q 547 576 566 576 l 541 577 q 531 579 537 579 q 521 574 529 579 q 511 569 513 569 q 499 573 508 569 q 492 578 495 576 q 488 578 490 580 q 485 568 486 576 q 484 541 484 559 q 487 519 487 533 q 479 508 487 519 l 476 504 q 595 460 580 486 q 581 458 595 458 q 564 463 577 458 q 546 468 552 468 l 470 468 q 467 456 467 468 q 509 436 467 440 q 551 423 551 433 q 541 413 551 418 q 423 397 464 412 q 416 371 416 376 q 464 342 459 342 l 480 342 q 490 335 482 340 q 505 329 498 329 q 536 333 514 329 q 569 336 557 336 l 580 339 q 610 360 601 346 q 615 368 613 364 q 620 378 617 372 q 631 379 622 379 q 645 363 631 363 q 655 369 655 363 l 655 401 q 665 413 655 408 q 668 415 666 415 l 672 416 q 686 447 672 447 q 690 439 687 444 q 707 509 707 439 q 711 505 708 505 q 713 509 713 505 q 718 530 715 515 q 726 571 720 544 q 736 633 736 605 m 363 684 l 358 682 l 361 677 l 363 684 m 627 275 q 623 269 623 272 l 623 265 q 627 272 627 266 l 627 275 m 436 455 q 420 458 427 458 q 413 461 418 461 q 406 452 406 461 q 436 455 436 453 m 632 184 q 630 186 632 186 l 627 186 q 605 168 605 177 l 605 166 q 608 163 605 163 l 609 163 q 633 183 620 163 l 632 184 m 591 183 q 586 192 588 192 l 551 189 q 497 151 523 173 l 497 158 q 498 167 497 161 q 500 178 500 173 q 493 192 500 189 q 468 150 484 185 q 451 104 451 116 q 463 111 456 104 q 470 119 469 118 l 486 123 q 500 128 495 128 q 520 140 508 133 q 551 157 533 147 q 584 173 561 161 q 591 183 591 180 m 452 180 q 449 184 451 182 q 445 188 448 186 l 438 176 l 441 176 q 446 178 442 176 q 452 180 449 180 m 465 188 q 435 142 455 179 l 435 138 q 454 158 442 138 q 465 188 465 180 m 433 154 q 428 158 430 158 q 426 147 426 147 l 428 144 q 433 154 433 148 m 433 102 q 426 93 426 100 l 426 90 q 433 101 433 93 l 433 102 m 418 86 q 402 97 418 90 q 397 90 397 91 l 393 94 q 391 95 391 95 q 388 97 390 95 q 386 87 386 97 q 402 80 388 80 q 418 86 416 80 m 703 742 q 690 721 703 721 q 681 728 683 721 q 668 731 672 731 l 661 731 l 654 730 q 674 712 654 724 q 695 685 695 700 q 690 677 695 677 l 665 677 q 657 688 662 677 q 647 699 651 699 q 637 696 644 699 q 627 692 630 692 q 621 694 622 692 q 605 710 612 697 q 590 707 600 710 q 576 705 580 705 q 547 724 547 705 q 573 761 547 761 l 672 761 q 703 742 703 761 m 695 474 q 687 461 695 461 l 687 481 q 695 474 695 481 m 669 433 l 666 425 l 661 427 l 669 433 m 632 443 q 630 430 632 434 l 623 423 q 613 448 613 429 l 613 470 q 601 483 607 475 q 607 491 601 491 q 632 443 632 491 m 588 490 q 586 477 588 483 q 579 497 579 480 l 580 498 l 581 500 q 588 490 588 497 m 637 713 q 632 719 637 719 q 623 713 623 716 q 626 708 623 711 l 627 707 l 630 707 q 637 713 637 709 "},"æ":{"x_min":-28.15625,"x_max":1494.265625,"ha":1658,"o":"m 608 -1 l 608 187 l 277 187 l 227 -1 l -28 -1 l 196 861 l 23 861 l 23 1110 l 1494 1110 l 1494 861 l 872 861 l 872 691 l 1358 691 l 1358 442 l 872 442 l 872 248 l 1494 248 l 1494 -1 l 608 -1 m 608 436 l 608 861 l 452 861 l 341 436 l 608 436 "},"É":{"x_min":0,"x_max":871.28125,"ha":974,"o":"m 0 -1 l 0 1110 l 871 1110 l 871 861 l 249 861 l 249 691 l 735 691 l 735 442 l 249 442 l 249 248 l 871 248 l 871 -1 l 0 -1 m 418 1415 l 637 1415 l 518 1164 l 298 1164 l 418 1415 "},"и":{"x_min":0,"x_max":866,"ha":998,"o":"m 249 0 l 0 0 l 0 1111 l 249 1111 l 248 270 l 617 383 l 617 1111 l 866 1111 l 866 0 l 617 0 l 617 112 l 249 0 "},"Н":{"x_min":0,"x_max":885,"ha":1017,"o":"m 885 1110 l 885 -1 l 636 -1 l 636 546 l 249 546 l 249 -1 l 0 -1 l 0 1110 l 249 1110 l 249 795 l 636 795 l 636 1110 l 885 1110 "},"~":{"x_min":-6.9375,"x_max":563.9375,"ha":557,"o":"m 466 626 l 563 577 l 426 390 l 159 526 l 87 427 l -6 477 l 130 667 l 395 530 l 466 626 "},"ф":{"x_min":0,"x_max":1239,"ha":1383,"o":"m 1239 -3 l 744 -3 l 744 -113 l 494 -113 l 494 -3 l 0 -3 l 0 1111 l 494 1111 l 494 1221 l 744 1221 l 744 1111 l 1239 1111 l 1239 -3 m 494 247 l 494 862 l 249 862 l 249 247 l 494 247 m 990 862 l 744 862 l 744 247 l 990 247 l 990 862 "},"л":{"x_min":16.046875,"x_max":862,"ha":1018,"o":"m 613 0 l 613 862 l 441 862 l 284 437 l 284 0 l 44 0 l 44 437 l 189 862 l 16 862 l 16 1111 l 862 1111 l 862 0 l 613 0 l 613 0 "},"[":{"x_min":41,"x_max":324,"ha":329,"o":"m 41 1145 l 324 1145 l 324 1031 l 265 1031 l 265 95 l 324 95 l 324 -18 l 41 -18 l 41 1145 "},"Щ":{"x_min":-3,"x_max":1318.734375,"ha":1487,"o":"m 885 250 l 885 1113 l 1134 1113 l 1134 250 l 1318 250 l 1318 1 l -3 1 l -3 1113 l 246 1113 l 246 250 l 451 250 l 451 969 l 700 969 l 700 250 l 885 250 "},"L":{"x_min":0,"x_max":804,"ha":914,"o":"m 804 406 l 804 -1 l 0 -1 l 0 1110 l 249 1110 l 249 248 l 557 248 l 557 406 l 804 406 "},"К":{"x_min":0,"x_max":888,"ha":1007,"o":"m 725 550 l 842 0 l 581 0 l 464 550 l 249 550 l 249 0 l 0 0 l 0 1111 l 249 1111 l 249 799 l 639 799 l 639 1111 l 888 1111 l 888 550 l 765 550 l 725 550 "}," ":{"x_min":0,"x_max":0,"ha":521},"%":{"x_min":55,"x_max":984,"ha":1019,"o":"m 425 972 l 425 483 l 55 483 l 55 972 l 425 972 m 283 847 l 197 847 l 197 608 l 283 608 l 283 847 m 984 489 l 984 0 l 614 0 l 614 489 l 984 489 m 842 364 l 756 364 l 756 125 l 842 125 l 842 364 m 752 1045 l 847 994 l 294 -61 l 200 -10 l 752 1045 "},"P":{"x_min":0,"x_max":888,"ha":978,"o":"m 888 351 l 249 351 l 249 0 l 0 0 l 0 1111 l 888 1111 l 888 351 m 639 862 l 249 862 l 249 600 l 639 600 l 639 862 "},"À":{"x_min":-28.15625,"x_max":857,"ha":999,"o":"m 196 861 l 23 861 l 23 1110 l 857 1110 l 857 -1 l 608 -1 l 608 187 l 277 187 l 227 -1 l -28 -1 l 196 861 m 608 436 l 608 861 l 452 861 l 341 436 l 608 436 m 662 1154 l 408 1154 l 289 1405 l 543 1405 l 662 1154 "},"_":{"x_min":0,"x_max":694.5,"ha":695,"o":"m 694 -169 l 0 -169 l 0 -100 l 694 -100 l 694 -169 "},"+":{"x_min":6.75,"x_max":576.25,"ha":583,"o":"m 6 429 l 6 554 l 229 554 l 229 776 l 354 776 l 354 554 l 576 554 l 576 429 l 354 429 l 354 207 l 229 207 l 229 429 l 6 429 "},"Æ":{"x_min":-28.15625,"x_max":1494.265625,"ha":1658,"o":"m 608 -1 l 608 187 l 277 187 l 227 -1 l -28 -1 l 196 861 l 23 861 l 23 1110 l 1494 1110 l 1494 861 l 872 861 l 872 691 l 1358 691 l 1358 442 l 872 442 l 872 248 l 1494 248 l 1494 -1 l 608 -1 m 608 436 l 608 861 l 452 861 l 341 436 l 608 436 "},"Ë":{"x_min":0,"x_max":871.28125,"ha":974,"o":"m 0 -1 l 0 1110 l 871 1110 l 871 861 l 249 861 l 249 691 l 735 691 l 735 442 l 249 442 l 249 248 l 871 248 l 871 -1 l 0 -1 m 171 1321 l 374 1321 l 374 1156 l 171 1156 l 171 1321 m 514 1321 l 717 1321 l 717 1156 l 514 1156 l 514 1321 "},"ѓ":{"x_min":0,"x_max":804.609375,"ha":854,"o":"m 0 1111 l 804 1111 l 804 862 l 249 862 l 249 0 l 0 0 l 0 1111 m 377 1380 l 597 1380 l 477 1129 l 258 1129 l 377 1380 "},"ы":{"x_min":0,"x_max":1220,"ha":1352,"o":"m 888 -1 l 0 -1 l 0 1110 l 249 1110 l 249 759 l 888 759 l 888 -1 m 639 510 l 249 510 l 249 249 l 639 249 l 639 510 m 970 -1 l 970 1110 l 1220 1110 l 1220 -1 l 970 -1 "},"'":{"x_min":48.609375,"x_max":226.40625,"ha":275,"o":"m 48 972 l 226 972 l 173 671 l 101 671 l 48 972 "},"Œ":{"x_min":0,"x_max":1567.28125,"ha":1839,"o":"m 696 0 l 0 0 l 0 1111 l 1567 1109 l 1567 861 l 945 861 l 945 691 l 1431 691 l 1431 442 l 945 442 l 945 248 l 1567 248 l 1567 -1 l 696 0 m 696 249 l 696 862 l 249 862 l 249 249 l 696 249 "},"Р":{"x_min":0,"x_max":888,"ha":1010,"o":"m 888 351 l 249 351 l 249 0 l 0 0 l 0 1111 l 888 1111 l 888 351 m 639 862 l 249 862 l 249 600 l 639 600 l 639 862 "},"щ":{"x_min":-3,"x_max":1318.734375,"ha":1487,"o":"m 885 250 l 885 1113 l 1134 1113 l 1134 250 l 1318 250 l 1318 1 l -3 1 l -3 1113 l 246 1113 l 246 250 l 451 250 l 451 969 l 700 969 l 700 250 l 885 250 "},"T":{"x_min":-27.78125,"x_max":861.1875,"ha":974,"o":"m 861 862 l 550 862 l 550 0 l 279 0 l 279 862 l -27 862 l -27 1111 l 861 1111 l 861 862 "},"є":{"x_min":0,"x_max":0,"ha":1157},"j":{"x_min":5.140625,"x_max":601,"ha":738,"o":"m 601 0 l 5 0 l 5 249 l 351 249 l 351 1111 l 601 1111 l 601 0 "},"1":{"x_min":9.921875,"x_max":428,"ha":566,"o":"m 428 1110 l 428 -1 l 178 -1 l 178 797 l 9 754 l 9 1003 l 178 1046 l 178 1110 l 428 1110 "},"Т":{"x_min":-27.78125,"x_max":861.1875,"ha":974,"o":"m 861 862 l 550 862 l 550 0 l 279 0 l 279 862 l -27 862 l -27 1111 l 861 1111 l 861 862 "},"ä":{"x_min":0,"x_max":856,"ha":1017,"o":"m 27 437 l 173 862 l 0 862 l 0 1111 l 856 1111 l 856 0 l 607 0 l 607 189 l 276 189 l 276 0 l 27 0 l 27 437 m 290 438 l 607 438 l 607 862 l 413 862 l 290 438 m 210 1336 l 413 1336 l 413 1171 l 210 1171 l 210 1336 m 553 1336 l 756 1336 l 756 1171 l 553 1171 l 553 1336 "},"<":{"x_min":-6.9375,"x_max":530.59375,"ha":544,"o":"m 163 490 l 530 336 l 530 207 l -6 447 l -6 549 l 530 790 l 530 660 l 163 490 "},"£":{"x_min":46.8125,"x_max":799.53125,"ha":875,"o":"m 126 1104 l 534 1104 l 534 868 l 362 868 l 362 624 l 534 624 l 534 481 l 362 481 l 362 236 l 799 236 l 799 0 l 46 0 l 46 236 l 126 236 l 126 481 l 46 481 l 46 624 l 126 624 l 126 1104 "},"Ц":{"x_min":0,"x_max":1046.734375,"ha":1164,"o":"m 613 248 l 613 1110 l 862 1110 l 862 248 l 1046 248 l 1046 -1 l 0 -1 l 0 1110 l 249 1110 l 249 248 l 613 248 "},"t":{"x_min":3.8125,"x_max":892.578125,"ha":999,"o":"m 892 862 l 587 862 l 587 0 l 308 0 l 308 862 l 3 862 l 3 1111 l 892 1111 l 892 862 "},"ù":{"x_min":0,"x_max":866,"ha":998,"o":"m 249 0 l 0 0 l 0 1111 l 249 1111 l 248 270 l 617 383 l 617 1111 l 866 1111 l 866 0 l 617 0 l 617 112 l 249 0 m 567 1158 l 313 1158 l 194 1409 l 448 1409 l 567 1158 "},"W":{"x_min":0,"x_max":1111,"ha":1243,"o":"m 1111 0 l 861 0 l 555 288 l 249 0 l 0 0 l 0 1111 l 249 1111 l 248 334 l 555 645 l 861 334 l 861 1111 l 1111 1111 l 1111 0 "},"а":{"x_min":0,"x_max":856,"ha":1017,"o":"m 27 437 l 173 862 l 0 862 l 0 1111 l 856 1111 l 856 0 l 607 0 l 607 189 l 276 189 l 276 0 l 27 0 l 27 437 m 290 438 l 607 438 l 607 862 l 413 862 l 290 438 "},"Ф":{"x_min":0,"x_max":1239,"ha":1367,"o":"m 1239 -3 l 744 -3 l 744 -113 l 494 -113 l 494 -3 l 0 -3 l 0 1111 l 494 1111 l 494 1221 l 744 1221 l 744 1111 l 1239 1111 l 1239 -3 m 494 247 l 494 862 l 249 862 l 249 247 l 494 247 m 990 862 l 744 862 l 744 247 l 990 247 l 990 862 "},"ï":{"x_min":-142,"x_max":404,"ha":376,"o":"m 250 997 l 250 0 l 0 0 l 0 997 l 250 997 m -142 1244 l 61 1244 l 61 1079 l -142 1079 l -142 1244 m 201 1244 l 404 1244 l 404 1079 l 201 1079 l 201 1244 "},">":{"x_min":13.890625,"x_max":551.4375,"ha":544,"o":"m 380 490 l 13 652 l 13 782 l 551 541 l 551 439 l 13 199 l 13 328 l 380 490 "},"v":{"x_min":0,"x_max":826.828125,"ha":978,"o":"m 826 673 l 576 0 l 0 0 l 0 1111 l 249 1111 l 249 249 l 419 249 l 576 673 l 576 1111 l 826 1111 l 826 673 l 826 673 "},"Ї":{"x_min":-6,"x_max":1470.109375,"ha":1700,"o":"m 805 497 q 795 525 805 519 l 790 525 q 784 459 783 512 l 791 452 q 805 497 805 465 m 1398 444 q 1463 408 1448 437 q 1453 330 1480 377 q 1395 268 1428 284 q 1356 253 1381 261 q 1290 236 1330 246 q 1190 197 1219 219 q 1021 118 1124 148 q 842 60 877 73 q 791 64 831 64 q 741 79 756 64 q 710 110 720 79 q 698 146 702 141 l 692 139 q 692 15 695 97 l 676 -3 q 634 -3 659 -4 q 577 -1 609 -3 q 492 11 499 3 q 496 21 492 14 q 501 30 501 29 q 476 48 501 37 q 439 61 451 58 l 427 72 q 434 94 434 82 q 402 162 434 122 q 345 205 370 204 q 330 214 338 208 q 312 228 323 221 q 280 282 306 244 l 278 307 l 289 310 q 433 235 328 235 q 601 289 526 235 q 691 437 683 350 q 699 443 692 440 q 714 451 706 447 q 728 460 721 455 q 737 470 735 465 q 745 563 745 504 q 708 714 745 687 q 683 777 712 758 q 671 794 683 784 q 659 812 659 805 q 610 826 649 820 q 567 844 574 831 l 551 845 l 546 833 q 576 820 555 820 q 598 799 587 809 q 620 777 609 788 q 655 734 656 740 q 641 726 653 731 q 631 714 628 721 q 664 684 664 691 q 656 666 664 676 q 605 674 638 664 q 553 687 567 687 q 513 670 531 687 q 488 676 501 670 l 485 694 q 506 716 501 702 q 541 728 510 723 q 564 739 546 737 q 592 744 585 741 q 564 763 581 763 q 516 742 551 763 q 473 723 483 721 q 469 736 471 728 q 464 755 467 744 l 470 767 q 514 791 514 778 q 442 830 514 803 q 409 859 431 834 q 369 888 385 884 l 366 898 q 410 889 373 901 q 458 880 445 880 l 467 887 q 423 913 449 914 q 395 931 412 920 q 358 958 378 942 l 339 955 q 348 920 330 934 q 360 902 362 910 l 342 902 q 260 966 333 933 l 242 958 q 246 946 246 951 q 230 913 246 942 q 196 845 194 864 q 176 751 199 838 q 148 659 153 665 q 158 637 145 648 q 158 609 158 627 q 161 563 159 591 q 161 491 162 516 q 149 468 161 481 q 137 448 138 455 l 127 445 q 122 487 124 452 q 108 524 119 516 l 90 520 q 79 491 79 505 q 99 448 79 470 q 122 419 119 426 l 142 415 q 169 440 163 440 q 181 415 181 440 l 181 386 q 258 286 183 369 q 261 276 258 282 q 269 264 265 271 q 276 252 273 258 q 277 239 279 246 q 276 158 273 222 q 267 80 277 107 q 231 128 249 126 q 145 198 183 168 q 84 248 108 229 q -3 414 10 314 q -5 436 -4 423 q -6 469 -6 450 q 24 619 -6 575 q 42 672 42 645 q 40 690 42 679 q 35 713 38 701 q 30 736 32 724 q 28 755 28 747 q 107 935 28 820 q 281 1067 169 1023 q 498 1108 383 1108 q 823 1001 699 1108 q 905 883 860 969 q 981 795 926 840 q 1081 733 1033 755 q 1125 725 1103 730 q 1169 713 1146 720 q 1241 633 1223 697 q 1260 520 1244 623 q 1313 455 1269 470 q 1337 452 1316 454 q 1398 444 1358 450 m 473 587 q 501 544 504 565 q 470 529 498 531 q 429 523 431 525 q 418 527 426 526 q 400 530 409 529 q 381 534 390 531 q 370 540 373 536 q 380 554 373 548 q 409 575 393 566 q 437 579 425 583 q 451 616 454 591 q 449 643 450 633 q 450 659 448 654 l 461 666 q 470 654 463 661 q 483 637 476 647 q 477 617 483 630 q 472 597 472 604 q 473 587 472 591 m 306 792 q 368 767 337 792 q 408 712 398 742 q 361 639 381 639 q 323 655 358 639 q 297 667 308 662 q 280 673 286 671 q 252 667 269 676 l 218 652 l 213 669 q 268 723 227 687 q 296 730 279 726 q 336 741 313 734 q 308 753 331 764 q 258 748 272 764 l 236 745 l 240 760 l 262 767 q 306 792 280 792 m 201 713 q 211 733 201 723 q 230 741 220 743 q 209 713 231 732 l 201 713 m 544 456 q 461 397 476 394 q 395 413 395 401 q 418 443 395 425 q 404 454 411 454 q 383 443 400 454 q 358 431 366 431 q 333 445 345 431 q 377 468 336 452 q 427 480 420 481 q 452 487 440 472 q 465 497 459 494 q 472 494 469 497 q 505 476 486 483 q 518 473 509 475 q 543 469 527 472 l 544 456 m 779 422 q 788 434 793 423 q 776 440 787 444 q 768 427 765 436 q 779 422 768 426 m 380 709 q 393 710 390 708 q 392 721 395 720 q 373 733 388 723 q 356 739 362 739 q 347 737 355 739 q 380 709 361 719 m 444 531 q 440 560 448 545 l 427 537 l 444 531 "},"Ò":{"x_min":0,"x_max":945,"ha":1077,"o":"m 0 0 l 0 1111 l 945 1111 l 945 0 l 0 0 m 696 249 l 696 862 l 249 862 l 249 249 l 696 249 m 664 1158 l 410 1158 l 291 1409 l 545 1409 l 664 1158 "},"О":{"x_min":0,"x_max":945,"ha":1077,"o":"m 0 0 l 0 1111 l 945 1111 l 945 0 l 0 0 m 696 249 l 696 862 l 249 862 l 249 249 l 696 249 "},"&":{"x_min":0,"x_max":868.125,"ha":945,"o":"m 0 1110 l 679 1110 l 679 871 l 248 871 l 248 651 l 530 651 l 530 744 l 779 744 l 779 651 l 868 651 l 868 427 l 779 427 l 779 0 l 0 0 l 0 426 l 138 537 l 0 648 l 0 1110 m 248 231 l 530 231 l 530 419 l 248 419 l 248 231 "},"I":{"x_min":7,"x_max":256,"ha":407,"o":"m 7 -1 l 7 1110 l 256 1110 l 256 -1 l 7 -1 "},"G":{"x_min":0,"x_max":928,"ha":1045,"o":"m 928 -1 l 0 -1 l 0 1110 l 928 1110 l 928 861 l 249 861 l 249 248 l 679 248 l 679 460 l 419 460 l 419 709 l 928 709 l 928 -1 "},"`":{"x_min":-27.78125,"x_max":345.859375,"ha":274,"o":"m 345 1158 l 91 1158 l -27 1409 l 226 1409 l 345 1158 "},"Х":{"x_min":-8.328125,"x_max":929.234375,"ha":1010,"o":"m 648 0 l 504 439 l 412 439 l 266 0 l -8 0 l 195 556 l 8 1111 l 281 1111 l 412 675 l 504 675 l 633 1111 l 913 1111 l 726 556 l 929 0 l 648 0 "},"r":{"x_min":0,"x_max":888,"ha":1012,"o":"m 888 1111 l 888 325 l 742 325 l 842 0 l 580 0 l 480 325 l 249 325 l 249 0 l 0 0 l 0 1111 l 888 1111 m 639 572 l 639 862 l 249 862 l 249 572 l 639 572 "},"ж":{"x_min":0,"x_max":1303,"ha":1424,"o":"m 1303 589 l 1303 1 l 1054 1 l 1054 342 l 776 342 l 776 1 l 774 1 l 526 1 l 526 342 l 249 342 l 249 1 l 0 1 l 0 589 l 163 589 l 45 1108 l 306 1108 l 424 589 l 526 589 l 526 1110 l 527 1110 l 776 1110 l 776 589 l 877 589 l 995 1108 l 1257 1108 l 1138 589 l 1303 589 "},"ý":{"x_min":0,"x_max":888,"ha":1020,"o":"m 888 1109 l 888 -1 l 1 -1 l 1 248 l 639 248 l 639 408 l 0 408 l 0 1109 l 250 1109 l 250 658 l 639 658 l 639 1109 l 888 1109 m 459 1380 l 679 1380 l 559 1129 l 340 1129 l 459 1380 "},"x":{"x_min":-8.328125,"x_max":929.234375,"ha":1010,"o":"m 648 0 l 504 439 l 412 439 l 266 0 l -8 0 l 195 556 l 8 1104 l 281 1104 l 412 675 l 504 675 l 633 1104 l 913 1104 l 726 556 l 929 0 l 648 0 "},"è":{"x_min":0,"x_max":931,"ha":1010,"o":"m 0 0 l 0 1110 l 931 1110 l 815 418 l 249 418 l 249 247 l 871 247 l 871 0 l 0 0 m 249 667 l 596 667 l 628 861 l 249 861 l 249 667 m 685 1158 l 431 1158 l 312 1409 l 566 1409 l 685 1158 "},"с":{"x_min":0,"x_max":869.890625,"ha":970,"o":"m 0 0 l 0 1110 l 869 1110 l 869 861 l 249 861 l 249 247 l 869 247 l 869 0 l 0 0 "},"h":{"x_min":0,"x_max":885,"ha":1017,"o":"m 885 795 l 885 -1 l 636 -1 l 636 546 l 249 546 l 249 -1 l 0 -1 l 0 1110 l 249 1110 l 249 795 l 885 795 "},"я":{"x_min":0,"x_max":888,"ha":1020,"o":"m 888 1110 l 888 -1 l 639 -1 l 639 464 l 407 464 l 307 0 l 45 0 l 145 464 l 0 464 l 0 1110 l 888 1110 m 639 711 l 639 861 l 249 861 l 249 711 l 639 711 "},"Ё":{"x_min":0,"x_max":872.671875,"ha":964,"o":"m 0 -1 l 0 1110 l 872 1110 l 872 861 l 249 861 l 249 691 l 735 691 l 735 442 l 249 442 l 249 248 l 872 248 l 872 -1 l 0 -1 m 129 1159 l 129 1397 l 367 1397 l 367 1159 l 129 1159 m 506 1160 l 506 1399 l 743 1398 l 743 1160 l 506 1160 "},".":{"x_min":0,"x_max":238,"ha":369,"o":"m 0 3 l 0 241 l 238 241 l 238 3 l 0 3 "},";":{"x_min":0,"x_max":238,"ha":369,"o":"m 0 605 l 0 843 l 238 843 l 238 605 l 0 605 m 0 -25 l 0 241 l 238 241 l 238 84 l 0 -25 "},"f":{"x_min":0,"x_max":871.28125,"ha":970,"o":"m 0 0 l 0 1110 l 871 1110 l 871 861 l 249 861 l 249 691 l 735 691 l 735 442 l 249 442 l 249 0 l 0 0 "},"Г":{"x_min":0,"x_max":804.609375,"ha":854,"o":"m 0 1111 l 804 1111 l 804 862 l 249 862 l 249 0 l 0 0 l 0 1111 "},"A":{"x_min":-28.15625,"x_max":857,"ha":999,"o":"m 196 861 l 23 861 l 23 1110 l 857 1110 l 857 -1 l 608 -1 l 608 187 l 277 187 l 227 -1 l -28 -1 l 196 861 m 608 436 l 608 861 l 452 861 l 341 436 l 608 436 "},"6":{"x_min":7,"x_max":895,"ha":1038,"o":"m 895 -1 l 7 -1 l 7 1110 l 256 1110 l 256 759 l 895 759 l 895 -1 m 646 510 l 256 510 l 256 249 l 646 249 l 646 510 "},"Ь":{"x_min":0,"x_max":888,"ha":980,"o":"m 888 -1 l 0 -1 l 0 1110 l 249 1110 l 249 759 l 888 759 l 888 -1 m 639 510 l 249 510 l 249 249 l 639 249 l 639 510 "},"O":{"x_min":0,"x_max":945,"ha":1077,"o":"m 0 0 l 0 1111 l 945 1111 l 945 0 l 0 0 m 696 249 l 696 862 l 249 862 l 249 249 l 696 249 "},"n":{"x_min":0,"x_max":881,"ha":1010,"o":"m 249 1111 l 249 977 l 632 759 l 632 1111 l 881 1111 l 881 0 l 632 0 l 632 456 l 249 674 l 249 0 l 0 0 l 0 1111 l 249 1111 "},"3":{"x_min":-1.390625,"x_max":818.125,"ha":911,"o":"m -1 -1 l -1 246 l 569 246 l 569 420 l 284 420 l 284 665 l 486 864 l -1 864 l -1 1110 l 818 1110 l 818 865 l 597 665 l 818 665 l 818 -1 l -1 -1 "},"9":{"x_min":-15,"x_max":873,"ha":1038,"o":"m -15 1110 l 873 1110 l 873 -1 l 624 -1 l 624 350 l -15 350 l -15 1110 m 234 599 l 624 599 l 624 861 l 234 861 l 234 599 "},"l":{"x_min":0,"x_max":804.609375,"ha":856,"o":"m 0 1111 l 249 1111 l 249 249 l 804 249 l 804 0 l 0 0 l 0 1111 "},"4":{"x_min":6.4375,"x_max":893,"ha":1037,"o":"m 893 1110 l 893 -1 l 644 -1 l 644 350 l 6 350 l 171 1110 l 420 1110 l 323 599 l 644 599 l 644 1110 l 893 1110 "},"p":{"x_min":0,"x_max":924.0625,"ha":979,"o":"m 794 351 l 249 351 l 249 0 l 0 0 l 0 1111 l 924 1111 l 794 351 m 629 862 l 249 862 l 249 600 l 578 600 l 629 862 "},"Ъ":{"x_min":-0.421875,"x_max":1214,"ha":1306,"o":"m 576 1110 l 576 759 l 1214 759 l 1214 -1 l 326 -1 l 326 861 l 0 861 l 0 1110 l 576 1110 m 965 510 l 576 510 l 576 249 l 965 249 l 965 510 "},"‡":{"x_min":-0.15625,"x_max":885,"ha":1017,"o":"m 224 861 l 51 861 l 51 1110 l 885 1110 l 885 -1 l 636 -1 l 636 187 l 305 187 l 255 -1 l 0 -1 l 224 861 m 636 436 l 636 861 l 480 861 l 369 436 l 636 436 "},"Ü":{"x_min":0,"x_max":904,"ha":1018,"o":"m 0 0 l 0 1111 l 249 1111 l 249 250 l 657 250 l 657 1111 l 904 1111 l 904 0 l 0 0 m 174 1329 l 377 1329 l 377 1164 l 174 1164 l 174 1329 m 517 1329 l 720 1329 l 720 1164 l 517 1164 l 517 1329 "},"à":{"x_min":0,"x_max":856,"ha":1017,"o":"m 27 437 l 173 862 l 0 862 l 0 1111 l 856 1111 l 856 0 l 607 0 l 607 189 l 276 189 l 276 0 l 27 0 l 27 437 m 290 438 l 607 438 l 607 862 l 413 862 l 290 438 m 653 1158 l 399 1158 l 280 1409 l 534 1409 l 653 1158 "},"ó":{"x_min":0,"x_max":946,"ha":1071,"o":"m 0 0 l 0 1111 l 946 1111 l 946 0 l 0 0 m 697 249 l 697 862 l 249 862 l 249 249 l 697 249 m 422 1400 l 641 1400 l 522 1149 l 302 1149 l 422 1400 "},"Ю":{"x_min":-2,"x_max":1371,"ha":1514,"o":"m 1371 1108 l 1371 -3 l 401 -3 l 401 521 l 247 521 l 247 -1 l -2 -1 l -2 1108 l 247 1108 l 247 770 l 401 770 l 401 1108 l 1371 1108 m 1108 859 l 661 859 l 661 246 l 1108 246 l 1108 859 "}}}
